<svg width="24" height="24" viewBox="0 0 24 24" fill="none" xmlns="http://www.w3.org/2000/svg">
<g clip-path="url(#clip0_11_580)">
<path d="M24 12C24 13.2833 23.8968 14.5415 23.6998 15.7684C23.0474 19.8301 19.8301 23.0475 15.7684 23.6998C14.5415 23.8969 13.2832 24 12 24C10.7168 24 9.45855 23.8969 8.23161 23.6998C4.16992 23.0475 0.952577 19.8301 0.300214 15.7684C0.103157 14.5415 0 13.2833 0 12C0 10.7168 0.103157 9.45848 0.300214 8.23158C0.952586 4.16989 4.16993 0.952561 8.23161 0.300215C9.45855 0.103157 10.7168 0 12 0C13.2832 0 14.5415 0.103157 15.7684 0.300215C19.8301 0.952561 23.0474 4.16989 23.6998 8.23157C23.8969 9.45848 24 10.7168 24 12Z" fill="#0B5CFF"/>
<path d="M14.5714 15C14.5714 15.71 13.9958 16.2857 13.2857 16.2857H7.71425C6.29409 16.2857 5.14282 15.1344 5.14282 13.7142V8.99995C5.14282 8.28992 5.71845 7.71423 6.42854 7.71423H12C13.4201 7.71423 14.5714 8.8655 14.5714 10.2857V15ZM17.8285 8.48559L15.9428 9.89987C15.6191 10.1427 15.4285 10.5238 15.4285 10.9285L15.4286 13.0713C15.4286 13.476 15.6191 13.8571 15.9428 14.0999L17.8285 15.5142C18.2523 15.832 18.8571 15.5296 18.8571 14.9999V8.99988C18.8571 8.47014 18.2523 8.16774 17.8285 8.48559Z" fill="white"/>
</g>
<defs>
<clipPath id="clip0_11_580">
<rect width="24" height="24" fill="white"/>
</clipPath>
</defs>
</svg>
