<svg width="24" height="24" viewBox="0 0 24 24" fill="none" xmlns="http://www.w3.org/2000/svg">
<g clip-path="url(#clip0_11_97)">
<path fill-rule="evenodd" clip-rule="evenodd" d="M6.94573 4.08415C7.59422 4.07211 8.24178 4.13859 8.87429 4.28215C9.40683 4.39842 9.91245 4.61478 10.3643 4.91973C10.7815 5.22296 11.1117 5.63063 11.3216 6.10181C11.5629 6.6812 11.6792 7.30495 11.6632 7.93235C11.6906 8.62125 11.5146 9.30299 11.1573 9.89259C10.7813 10.4495 10.2617 10.8942 9.65343 11.1796C10.4789 11.4021 11.1978 11.9119 11.681 12.6171C12.1448 13.3644 12.378 14.2319 12.3512 15.111C12.3665 15.8119 12.2216 16.5071 11.9275 17.1435C11.6557 17.6987 11.2576 18.1825 10.7652 18.5562C10.2583 18.9259 9.68783 19.1994 9.08219 19.3631C8.45412 19.5369 7.80529 19.6241 7.15364 19.6225H-0.0012207V4.08415H6.94573ZM6.5329 10.3688C7.04242 10.3898 7.54398 10.2373 7.95555 9.93615C8.15266 9.76068 8.30599 9.54154 8.40328 9.29623C8.50058 9.05093 8.53915 8.78626 8.5159 8.52339C8.52909 8.21637 8.46796 7.91071 8.3377 7.63238C8.2272 7.41077 8.05539 7.22556 7.84269 7.09876C7.62725 6.95918 7.38521 6.8658 7.13186 6.82452C6.85696 6.77127 6.57723 6.74705 6.29727 6.75225H3.2401V10.3826H6.5329V10.3688ZM6.7111 16.9841C7.01924 16.9883 7.32674 16.955 7.62686 16.8851C7.90114 16.8245 8.16125 16.7119 8.39314 16.5534C8.62031 16.395 8.80384 16.1819 8.92676 15.9337C9.06928 15.6172 9.13476 15.2715 9.11783 14.9249C9.14873 14.609 9.10689 14.2902 8.99552 13.993C8.88414 13.6957 8.70619 13.4279 8.47531 13.2101C7.98595 12.8497 7.38623 12.6712 6.77941 12.7052H3.2401V16.9841H6.7111Z" fill="#0057FF"/>
<path fill-rule="evenodd" clip-rule="evenodd" d="M16.9677 16.9266C17.2221 17.1624 17.5217 17.344 17.8485 17.4604C18.1753 17.5768 18.5223 17.6256 18.8685 17.6038C19.4173 17.6176 19.9555 17.4507 20.4 17.1286C20.7617 16.8934 21.0356 16.5454 21.1792 16.1385H23.7641C23.4887 17.2967 22.8161 18.3217 21.8633 19.0353C20.9492 19.642 19.869 19.9493 18.7725 19.9145C17.9898 19.9247 17.2131 19.7776 16.4885 19.4818C15.833 19.2085 15.2451 18.7952 14.7659 18.271C14.2884 17.7218 13.9217 17.0854 13.6857 16.3969C13.4209 15.6274 13.2913 14.8178 13.3026 14.0041C13.2978 13.2039 13.4318 12.4091 13.6986 11.6547C14.0571 10.5936 14.7426 9.67321 15.6566 9.02579C16.5707 8.37836 17.6663 8.03714 18.7863 8.05108C19.6132 8.03379 20.4309 8.22731 21.1624 8.61341C21.8235 8.97595 22.3939 9.48369 22.8305 10.0984C23.2772 10.7435 23.5974 11.4675 23.774 12.2319C23.9678 13.0528 24.0368 13.8982 23.979 14.7396H16.2796C16.2172 15.5302 16.4639 16.3142 16.9677 16.9266ZM20.3456 11.0172C20.1301 10.8017 19.871 10.6348 19.5856 10.5279C19.3003 10.421 18.9953 10.3765 18.6913 10.3974C18.2879 10.382 17.8875 10.4714 17.529 10.6568C17.2448 10.8133 16.9939 11.0238 16.7904 11.2766C16.6102 11.5135 16.4758 11.7822 16.3944 12.0686C16.3211 12.3074 16.2752 12.5539 16.2578 12.8032H21.0267C20.9852 12.1534 20.7485 11.5312 20.3476 11.0182L20.3456 11.0172Z" fill="#0057FF"/>
<path d="M15.643 5.12163H21.6188V6.64923H15.643V5.12163Z" fill="#0057FF"/>
</g>
<defs>
<clipPath id="clip0_11_97">
<rect width="24" height="24" fill="white" transform="translate(-0.0012207)"/>
</clipPath>
</defs>
</svg>
