<svg width="24" height="24" viewBox="0 0 24 24" fill="none" xmlns="http://www.w3.org/2000/svg">
<circle cx="12" cy="12" r="12" fill="#FFABE7"/>
<path fill-rule="evenodd" clip-rule="evenodd" d="M12 22C17.5228 22 22 17.5228 22 12C22 6.47715 17.5228 2 12 2C6.47715 2 2 6.47715 2 12C2 17.5228 6.47715 22 12 22ZM14.1689 20.1561C13.4768 20.3397 12.7498 20.4375 12 20.4375C10.8653 20.4375 9.78284 20.2135 8.79454 19.8073C9.73236 16.3457 12.3257 13.8664 15.2966 12.7622C15.8119 15.2593 15.4281 17.9372 14.1689 20.1561ZM16.3896 19.2072C17.1954 17.0126 17.3541 14.5951 16.8603 12.3157C18.0525 12.075 19.2686 12.0529 20.4332 12.2726C20.3399 15.2107 18.7445 17.7698 16.3896 19.2072ZM20.3235 10.61C19.0343 10.4208 17.7067 10.4761 16.4104 10.753C16.1592 10.0484 15.8422 9.36952 15.4644 8.72492C16.53 8.10953 17.5015 7.3323 18.3333 6.42483C19.3528 7.58211 20.0602 9.02106 20.3235 10.61ZM17.1495 5.3156C16.3992 6.137 15.5166 6.83552 14.5485 7.37997C13.895 6.5494 13.139 5.80161 12.2961 5.15953L12.2757 5.14403L12.2546 5.12994C12.2545 5.12988 12.2527 5.12866 12.2488 5.12594C12.2443 5.12276 12.2383 5.11847 12.2307 5.11288C12.2151 5.10158 12.1958 5.0873 12.1727 5.06999C12.1464 5.05034 12.1201 5.03046 12.0918 5.00911L12.086 5.00477C12.0631 4.98746 12.0389 4.96916 12.0123 4.9492C11.9549 4.90601 11.8919 4.85904 11.834 4.81757C11.7936 4.78858 11.7354 4.74759 11.6761 4.71144L11.6384 4.68539C11.5612 4.63191 11.4451 4.5515 11.3397 4.48679C11.2413 4.41776 11.1082 4.33913 11.021 4.28807C10.9367 4.23868 10.8458 4.18684 10.7894 4.15463L10.7461 4.12986C10.7357 4.1238 10.7267 4.11877 10.7229 4.11668L10.7222 4.11628C10.7156 4.1126 10.7083 4.10858 10.7017 4.10496L10.6929 4.10008C10.6803 4.09315 10.6677 4.08621 10.6546 4.07892C10.6396 4.07058 10.6275 4.0637 10.6186 4.05855L10.6125 4.05428L10.591 4.04113C10.5131 3.99352 10.4319 3.95004 10.3878 3.92644L10.3716 3.91772L10.3527 3.90758L10.3334 3.89844C10.2916 3.8787 10.2282 3.84849 10.1567 3.81443L10.155 3.81363C10.1326 3.80294 10.1093 3.79182 10.0857 3.78059C10.7007 3.63792 11.3416 3.5625 12 3.5625C13.9387 3.5625 15.7247 4.21637 17.1495 5.3156ZM7.86353 4.6443C6.61206 5.34958 5.55866 6.365 4.8076 7.58628C5.70102 8.03939 6.66062 8.35954 7.64916 8.53553L7.65128 8.53591L7.65341 8.53631C8.875 8.7605 10.1343 8.7545 11.3673 8.53222C11.9329 8.4301 12.4884 8.27828 13.0273 8.08108C12.5208 7.4819 11.9518 6.93829 11.3293 6.46222C11.2866 6.43266 11.2394 6.39756 11.2008 6.36866C11.1715 6.34678 11.1371 6.32084 11.1032 6.29525L11.1023 6.29457C11.0799 6.27762 11.0576 6.26086 11.0373 6.24556C10.9816 6.20369 10.931 6.16603 10.8891 6.13603C10.8619 6.11653 10.8462 6.106 10.8398 6.10166C10.8374 6.10005 10.8363 6.09929 10.8363 6.09925L10.8124 6.08575L10.7842 6.06666C10.7428 6.03853 10.7059 6.013 10.6721 5.98959L10.6717 5.98937C10.5977 5.93811 10.5383 5.89701 10.478 5.86125L10.4385 5.83778L10.4029 5.81083C10.404 5.81163 10.4034 5.81123 10.4008 5.8095L10.4004 5.80927C10.3941 5.80508 10.3775 5.79405 10.3468 5.775C10.3056 5.74947 10.2551 5.71931 10.2012 5.68769C10.1246 5.64288 10.0549 5.60309 9.99972 5.57163L9.99319 5.5679C9.97017 5.55475 9.94985 5.54315 9.93285 5.53334L9.93116 5.53238L9.91782 5.525L9.9115 5.52153C9.89897 5.51466 9.88225 5.50544 9.86522 5.49597C9.84528 5.48488 9.8211 5.47125 9.79757 5.45747C9.78469 5.44994 9.76069 5.43581 9.73382 5.41838C9.70078 5.39869 9.66535 5.37966 9.62316 5.357L9.62128 5.35597C9.57082 5.33209 9.508 5.30216 9.44135 5.27034C9.31591 5.21053 9.17672 5.14419 9.08013 5.09926L9.06972 5.09443L9.02607 5.0726C8.87309 5.00168 8.68996 4.93224 8.48487 4.85448L8.48416 4.85422C8.4395 4.83729 8.39382 4.81997 8.34716 4.80215C8.22067 4.75675 8.08931 4.71541 7.95171 4.6721L7.95138 4.672C7.92238 4.66287 7.8931 4.65366 7.86353 4.6443ZM4.09497 9.04357C5.12454 9.56312 6.2276 9.92974 7.36253 10.132C8.78322 10.3925 10.2388 10.3838 11.6554 10.1284C12.4617 9.98286 13.2489 9.751 14.0036 9.44203C14.3396 10.0005 14.6222 10.589 14.8469 11.2C11.4577 12.4207 8.50008 15.1789 7.33035 19.0286C5.05911 17.5166 3.5625 14.9331 3.5625 12C3.5625 10.9598 3.75072 9.96361 4.09497 9.04357Z" fill="#B8509A"/>
</svg>
