<svg width="24" height="24" viewBox="0 0 24 24" fill="none" xmlns="http://www.w3.org/2000/svg">
<path d="M11.9997 0C5.24085 0 0 4.95286 0 11.6397C0 15.1376 1.43396 18.1615 3.76789 20.2494C3.96289 20.4234 4.08289 20.6694 4.08889 20.9334L4.15488 23.0694C4.15969 23.2265 4.20302 23.3801 4.28108 23.5166C4.35914 23.6531 4.46952 23.7683 4.60254 23.8521C4.73555 23.936 4.88713 23.9859 5.04394 23.9974C5.20074 24.009 5.35799 23.9818 5.50185 23.9183L7.88378 22.8684C8.08477 22.7784 8.31277 22.7634 8.52576 22.8204C9.62073 23.1204 10.7847 23.2824 11.9997 23.2824C18.7585 23.2824 23.9993 18.3295 23.9993 11.6427C23.9993 4.95586 18.7585 0 11.9997 0Z" fill="url(#paint0_radial_11_89)"/>
<path d="M4.79389 15.0445L8.31879 9.45269C8.45139 9.24216 8.6262 9.06141 8.83218 8.92185C9.03816 8.78228 9.27084 8.68694 9.51552 8.64184C9.76021 8.59673 10.0116 8.60285 10.2538 8.6598C10.496 8.71674 10.7238 8.82329 10.9227 8.9727L13.7276 11.0756C13.8529 11.1694 14.0052 11.2198 14.1616 11.2193C14.3181 11.2187 14.47 11.1673 14.5946 11.0726L18.3805 8.19872C18.8845 7.81473 19.5445 8.42072 19.2085 8.9577L15.6806 14.5465C15.548 14.7571 15.3732 14.9378 15.1672 15.0774C14.9612 15.217 14.7285 15.3123 14.4838 15.3574C14.2392 15.4025 13.9878 15.3964 13.7456 15.3394C13.5034 15.2825 13.2756 15.176 13.0767 15.0265L10.2717 12.9236C10.1465 12.8298 9.99417 12.7794 9.83774 12.78C9.68132 12.7805 9.52933 12.832 9.40476 12.9266L5.61886 15.8005C5.11488 16.1845 4.4549 15.5815 4.79389 15.0445Z" fill="white"/>
<defs>
<radialGradient id="paint0_radial_11_89" cx="0" cy="0" r="1" gradientUnits="userSpaceOnUse" gradientTransform="translate(4.01989 23.9993) scale(26.3993 26.3993)">
<stop stop-color="#0099FF"/>
<stop offset="0.6" stop-color="#A033FF"/>
<stop offset="0.9" stop-color="#FF5280"/>
<stop offset="1" stop-color="#FF7061"/>
</radialGradient>
</defs>
</svg>
