<svg width="24" height="24" viewBox="0 0 24 24" fill="none" xmlns="http://www.w3.org/2000/svg">
<g clip-path="url(#clip0_11_98)">
<path d="M7.99884 24.0001C10.2069 24.0001 11.9989 22.208 11.9989 20V16H7.99884C5.79082 16 3.99878 17.792 3.99878 20C3.99878 22.208 5.79082 24.0001 7.99884 24.0001Z" fill="#0ACF83"/>
<path d="M3.99878 12C3.99878 9.79203 5.79082 8 7.99884 8H11.9989V16H7.99884C5.79082 16.0001 3.99878 14.208 3.99878 12Z" fill="#A259FF"/>
<path d="M3.99878 4.00003C3.99878 1.79203 5.79082 0 7.99884 0H11.9989V7.99997H7.99884C5.79082 7.99997 3.99878 6.20803 3.99878 4.00003Z" fill="#F24E1E"/>
<path d="M11.9987 0H15.9987C18.2067 0 19.9988 1.79203 19.9988 4.00003C19.9988 6.20803 18.2067 7.99997 15.9987 7.99997H11.9987V0Z" fill="#FF7262"/>
<path d="M19.9988 12C19.9988 14.208 18.2067 16.0001 15.9987 16.0001C13.7907 16.0001 11.9987 14.208 11.9987 12C11.9987 9.79203 13.7907 8 15.9987 8C18.2067 8 19.9988 9.79203 19.9988 12Z" fill="#1ABCFE"/>
</g>
<defs>
<clipPath id="clip0_11_98">
<rect width="24" height="24" fill="white" transform="translate(-0.0012207)"/>
</clipPath>
</defs>
</svg>
